<?xml version="1.0" encoding="utf-8"?>
<!-- Generator: Adobe Illustrator 24.0.3, SVG Export Plug-In . SVG Version: 6.00 Build 0)  -->
<svg version="1.1" id="Layer_1" xmlns="http://www.w3.org/2000/svg" xmlns:xlink="http://www.w3.org/1999/xlink" x="0px" y="0px"
	 viewBox="0 0 64 24" style="enable-background:new 0 0 64 24;" xml:space="preserve">
<style type="text/css">
	.st0{fill:#FFFFFF;}
	.st1{fill:#7BC143;}
</style>
<title>THL_tunnus_lyhyt_RGB_vihrea_nega</title>
<path class="st0" d="M34.8,11.5h3V8h-3.1V6.1c0-0.9-0.7-1.7-1.7-1.7c0,0,0,0-0.1,0h-2.6V8h-1.7v3.5h1.7v4.9c0,4.5,3.9,5.1,6.1,5.1
	c0.4,0,0.8,0,1.2-0.1v-3.9c0,0-0.2,0-0.6,0c-0.9,0-2.4-0.2-2.4-1.7L34.8,11.5z M51.8,21.4h3.7v-3.8h-0.7c-0.5,0-0.9-0.4-0.9-0.9
	c0,0,0,0,0,0v-4c0-3.8-1.9-5-4.6-5c-1.7-0.1-3.2,0.7-4.1,2.1V4.5c0-0.9-0.7-1.7-1.7-1.7c0,0,0,0-0.1,0h-2.6v18.6h4.3v-5.9
	c0-0.6,0.1-1.2,0.2-1.7c0.4-1.2,1.5-2,2.7-2c1,0,1.5,0.5,1.5,1.8v5.7c-0.1,1.1,0.8,2.1,1.9,2.2C51.6,21.4,51.7,21.4,51.8,21.4
	 M64,21.4v-3.8h-0.7c-0.5,0-0.9-0.4-0.9-0.9c0,0,0,0,0,0V6.1c0-0.9-0.7-1.7-1.7-1.7c0,0,0,0-0.1,0h-2.6v14.8
	c-0.1,1.1,0.8,2.1,1.9,2.2c0.1,0,0.2,0,0.3,0H64z"/>
<path class="st1" d="M22.8,12c0,6.3-5.1,11.4-11.4,11.4C5.1,23.5,0,18.4,0,12.1S5.1,0.6,11.4,0.6c0,0,0,0,0,0
	C17.7,0.6,22.8,5.7,22.8,12"/>
<path class="st0" d="M12.4,11.8c1.1-1.9,2.3-3.2,3.7-3.6c2-0.7,3.2,0.6,4.1,1.1c-0.5,1-0.7,2.7-2.7,3.3C16.1,13,14.4,12.7,12.4,11.8
	 M9.1,6.4c0-2.1,1.6-2.9,2.3-3.6c0.8,0.7,2.3,1.5,2.3,3.6c0,1.5-0.8,3.1-2.3,4.6C9.9,9.4,9.1,7.9,9.1,6.4 M10.5,11.7
	c-2,0.9-3.7,1.2-5.1,0.8c-2-0.7-2.2-2.4-2.7-3.3c0.9-0.5,2.1-1.8,4.1-1.1C8.2,8.6,9.4,9.8,10.5,11.7 M10.8,12.9
	c0.3,2.2,0,3.9-0.8,5.1c-1.3,1.7-2.9,1.4-4,1.5c-0.2-1.1-1-2.6,0.2-4.3C7.1,14,8.7,13.3,10.8,12.9 M16.8,19.5
	c-1.1-0.1-2.7,0.2-4-1.5c-0.9-1.2-1.1-3-0.9-5.1c2.2,0.4,3.7,1.2,4.6,2.4C17.8,17,17,18.5,16.8,19.5"/>
</svg>
