<svg id="Layer_1" data-name="Layer 1" xmlns="http://www.w3.org/2000/svg" viewBox="0 0 175.75 48.19"><defs><style>.cls-1{fill:#606060;}.cls-2{fill:#7bc143;}.cls-3{fill:#fff;}</style></defs><title>THL_tunnus_virallinen_FI_RGB</title><path class="cls-1" d="M96.89,29h-.42v5.7c0,.58.25.82.83.82h1V34.49H98a.25.25,0,0,1-.28-.28V29.87c0-.58-.24-.83-.82-.83m-.54-1.78a.73.73,0,1,0,.73-.73.73.73,0,0,0-.73.73M69.7,29h-.41v5.7c0,.58.25.82.83.82h1V34.49h-.29a.25.25,0,0,1-.28-.28V29.87c0-.58-.25-.83-.83-.83m-.5-1.78a.73.73,0,1,0,.73-.73.72.72,0,0,0-.73.73m-22.85-.8v9.1H47.6V32.51a2.7,2.7,0,0,1,.11-.87A2.15,2.15,0,0,1,49.77,30c1,0,1.24.72,1.24,1.64v3.07c0,.58.25.82.83.82h1V34.49h-.29a.25.25,0,0,1-.28-.28V31.39c0-1.67-.7-2.5-2.23-2.5a2.65,2.65,0,0,0-2.42,1.45h0a4.63,4.63,0,0,0,0-.54V27.26c0-.55-.25-.8-.83-.8Zm5.43-11.81h1.15v-1.2c0-.58-.19-.77-.77-.77H45.89c-.58,0-.77.19-.77.77v1.2h1.15v-.58a.25.25,0,0,1,.28-.28h1.83V21c0,.58.24.83.82.83h1V20.71H50a.25.25,0,0,1-.28-.25V13.79H51.5a.25.25,0,0,1,.28.28Zm6.15,3.1H54.48a1.87,1.87,0,0,1,1.92-1.66,1.54,1.54,0,0,1,1.53,1.66m1.25.92s0-.35,0-.52a2.77,2.77,0,0,0-2.81-3,3.21,3.21,0,0,0-3.28,3.41,3.33,3.33,0,0,0,3.47,3.42A3.8,3.8,0,0,0,59.11,21l-.54-.89a3,3,0,0,1-1.9.76,2.2,2.2,0,0,1-2.25-2.18Zm-2,18.06L60.25,29h-.7a.84.84,0,0,0-.95.66l-1.35,3.67a5.87,5.87,0,0,0-.22.79h0a6.76,6.76,0,0,0-.23-.79L55.29,29.7c-.21-.52-.4-.66-.93-.66h-.73l2.79,6.5-.29.7a1.33,1.33,0,0,1-1.15.95,1.36,1.36,0,0,1-.95-.47l-.52.9a2.16,2.16,0,0,0,1.53.65,2.21,2.21,0,0,0,2.1-1.54M64,16.4a1.81,1.81,0,0,1,.37,0V15.2l-.33,0A2.24,2.24,0,0,0,62,16.88h0s0-.2,0-.45V16c0-.52-.27-.76-.83-.76h-.38v6.53H62V19.11a3.91,3.91,0,0,1,.16-1.18A2,2,0,0,1,64,16.4m2,13.3-1.39,3.75a7.36,7.36,0,0,0-.23.85h0a7.36,7.36,0,0,0-.23-.85l-1.4-3.75a.86.86,0,0,0-1-.66h-.64l2.54,6.52H65L67.57,29H67a.86.86,0,0,0-1,.66m3.4-7.92,2.54-6.53h-.6a.88.88,0,0,0-1,.66l-1.39,3.75a7.36,7.36,0,0,0-.23.85h0a7.36,7.36,0,0,0-.23-.85L67,15.91a.87.87,0,0,0-1-.66h-.64l2.54,6.53Zm8.19-4H74.11A1.88,1.88,0,0,1,76,16.09a1.54,1.54,0,0,1,1.53,1.66m1.25.92s0-.35,0-.52a2.77,2.77,0,0,0-2.81-3,3.2,3.2,0,0,0-3.27,3.41,3.32,3.32,0,0,0,3.47,3.42A3.83,3.83,0,0,0,78.75,21l-.54-.89a3,3,0,0,1-1.91.76,2.19,2.19,0,0,1-2.24-2.18Zm-.24,16.89h1V34.49h-.29a.25.25,0,0,1-.28-.28V31.39c0-1.67-.7-2.5-2.25-2.5a2.63,2.63,0,0,0-2.44,1.49h0a2.39,2.39,0,0,0,0-.37v-.25c0-.47-.28-.72-.83-.72h-.39v6.52h1.25V32.51a2.72,2.72,0,0,1,.12-.88A2.12,2.12,0,0,1,76.52,30c1,0,1.23.72,1.23,1.64v3.07c0,.58.24.82.82.82M83.48,23l3.11-7.7h-.7a.85.85,0,0,0-1,.66l-1.35,3.67a5.87,5.87,0,0,0-.22.79h0a6.76,6.76,0,0,0-.23-.79l-1.48-3.67c-.21-.51-.4-.66-.93-.66H80l2.79,6.5-.29.71a1.32,1.32,0,0,1-1.15.94,1.37,1.37,0,0,1-.95-.46l-.52.9a2.17,2.17,0,0,0,1.53.64A2.22,2.22,0,0,0,83.48,23m.94,12.61L87,29h-.6a.85.85,0,0,0-1,.66L84,33.45a7.36,7.36,0,0,0-.23.85h0a8.53,8.53,0,0,0-.24-.85l-1.4-3.75c-.19-.52-.41-.66-1-.66h-.65L83,35.56ZM92.53,18.5c0,1.66-.91,2.35-1.88,2.35s-1.84-.92-1.84-2.34.85-2.33,1.87-2.33c1.25,0,1.85,1.16,1.85,2.32m.83,3.28h1V20.71H94a.26.26,0,0,1-.29-.29V13.5c0-.58-.24-.82-.82-.82h-.43v1.68c0,.24,0,1.74,0,1.74h0a2.17,2.17,0,0,0-2-1c-1.72,0-3,1.34-3,3.41s1.11,3.42,2.88,3.42a2.32,2.32,0,0,0,2.14-1.19h0s0,.15,0,.34c0,.44.23.7.8.7m.24,10.51A2.24,2.24,0,1,1,91.36,30a2.25,2.25,0,0,1,2.24,2.32m1.28,0a3.52,3.52,0,1,0-3.52,3.43,3.4,3.4,0,0,0,3.52-3.43m5.5-14.54H96.93a1.88,1.88,0,0,1,1.92-1.66,1.54,1.54,0,0,1,1.53,1.66m1.25.92s0-.35,0-.52a2.77,2.77,0,0,0-2.81-3,3.2,3.2,0,0,0-3.27,3.41,3.32,3.32,0,0,0,3.47,3.42,3.83,3.83,0,0,0,2.51-.95l-.54-.89a3,3,0,0,1-1.91.76,2.19,2.19,0,0,1-2.24-2.18Zm2.31,10.22a2.65,2.65,0,0,0-2.45,1.49h0a3.55,3.55,0,0,0,0-.37v-.25c0-.47-.27-.72-.82-.72h-.39v6.52h1.25V32.51a2.72,2.72,0,0,1,.12-.88,2.11,2.11,0,0,1,2.06-1.6c1,0,1.22.72,1.22,1.64v3.07c0,.58.25.82.83.82h1V34.49h-.28a.26.26,0,0,1-.29-.28V31.39c0-1.67-.69-2.5-2.24-2.5M109,21.78h1V20.71h-.29a.25.25,0,0,1-.28-.29V17.6c0-1.66-.7-2.5-2.24-2.5a2.67,2.67,0,0,0-2.45,1.49h0a2.23,2.23,0,0,0,0-.37V16c0-.48-.27-.73-.83-.73h-.38v6.53h1.25V18.72a2.72,2.72,0,0,1,.11-.88A2.11,2.11,0,0,1,107,16.25c1,0,1.22.72,1.22,1.63V21c0,.58.25.83.83.83m5.42,9.61c0-1.67-.7-2.5-2.25-2.5a2.63,2.63,0,0,0-2.44,1.49h0a2.39,2.39,0,0,0,0-.37v-.25c0-.47-.28-.72-.83-.72h-.39v6.52h1.25V32.51a2.72,2.72,0,0,1,.12-.88,2.12,2.12,0,0,1,2.06-1.6c1,0,1.23.72,1.23,1.64v3.07c0,.58.24.82.82.82h1V34.49h-.29a.25.25,0,0,1-.28-.28Zm1.35-9.47a1.28,1.28,0,0,1-1.39,1.43,2,2,0,0,1-.29,0V24.4a2.73,2.73,0,0,0,.43,0A2.26,2.26,0,0,0,117,22V16.08c0-.58-.25-.83-.83-.83h-.42Zm1.35-8.47a.73.73,0,1,0-.73.72.73.73,0,0,0,.73-.72m1,13.81a.73.73,0,1,0-.73.72.73.73,0,0,0,.73-.72m-.52,8.3h1V34.49h-.29a.25.25,0,0,1-.28-.28V29.87c0-.58-.25-.83-.83-.83h-.41v5.7c0,.58.25.82.83.82M123,18.85a2,2,0,0,1-1.74,2.07,1.08,1.08,0,0,1-1.23-1c0-1.2,1.7-1.25,2.64-1.25H123Zm.87,2.93h.93V20.71h-.28a.26.26,0,0,1-.29-.29V17.65c0-1.44-.56-2.55-2.68-2.55-.63,0-2.25.15-2.25,1.22V17h1.17v-.38c0-.42.76-.5,1.07-.5,1,0,1.44.41,1.44,1.56v.07h-.28c-1.1,0-3.93.12-3.93,2.23a2,2,0,0,0,2.21,2,2.24,2.24,0,0,0,2.08-1.29h0a2.49,2.49,0,0,0,0,.39c0,.46.23.75.81.75M126,35.56h1V34.49h-.28a.26.26,0,0,1-.29-.28V31.39c0-1.67-.69-2.5-2.24-2.5a2.65,2.65,0,0,0-2.45,1.49h0a3.55,3.55,0,0,0,0-.37v-.25c0-.47-.27-.72-.82-.72h-.39v6.52h1.25V32.51a2.72,2.72,0,0,1,.12-.88A2.1,2.1,0,0,1,124,30c1,0,1.22.72,1.22,1.64v3.07c0,.58.25.82.83.82m6.92,0h1V34.49h-.28a.26.26,0,0,1-.29-.28V27.29c0-.58-.24-.83-.82-.83h-.43v8.28c0,.58.25.82.83.82m6.78-2.92A2,2,0,0,1,138,34.72a1.09,1.09,0,0,1-1.23-1c0-1.2,1.71-1.25,2.65-1.25h.32Zm.87,2.93h.94V34.5h-.29a.25.25,0,0,1-.28-.28V31.45c0-1.45-.57-2.56-2.69-2.56-.63,0-2.25.16-2.25,1.23v.64h1.17v-.37c0-.43.76-.5,1.07-.5,1,0,1.45.41,1.45,1.56v.06h-.29c-1.09,0-3.93.13-3.93,2.23a2,2,0,0,0,2.22,2,2.21,2.21,0,0,0,2.07-1.28h0a2.28,2.28,0,0,0,0,.38c0,.47.23.75.81.75m4.29-8.31a.73.73,0,1,0-.73.72.73.73,0,0,0,.73-.72m-.51,8.3h1V34.49h-.29a.25.25,0,0,1-.28-.28V29.87c0-.58-.25-.83-.83-.83h-.41v5.7c0,.58.25.82.83.82m13.07-3.29a2.24,2.24,0,1,1-4.47,0,2.24,2.24,0,1,1,4.47,0m1.28,0a3.41,3.41,0,0,0-3.52-3.41,3.29,3.29,0,0,0-3.51,3.27,3.52,3.52,0,0,0,3.51,3.57,3.42,3.42,0,0,0,3.52-3.43m4.47-1.52h1.12v-.62c0-1-1.35-1.27-2.14-1.27-1.32,0-2.42.58-2.42,1.83,0,2.11,3.56,2,3.56,3.15,0,.57-.53.84-1.14.84a2.78,2.78,0,0,1-2-1l-.64.84a3.34,3.34,0,0,0,2.6,1.15c1.37,0,2.4-.75,2.4-1.91,0-2.18-3.56-1.91-3.56-3.15,0-.51.48-.77,1.21-.77.4,0,1,.17,1,.55Z"/><path class="cls-2" d="M38.58,24.09A14.17,14.17,0,1,1,24.41,9.92,14.17,14.17,0,0,1,38.58,24.09"/><path class="cls-3" d="M25.59,23.72c1.31-2.39,2.84-4,4.59-4.54,2.52-.81,4,.74,5.14,1.37-.58,1.2-.85,3.32-3.35,4.13-1.79.58-3.93.18-6.38-1m-4.07-6.63c0-2.64,1.93-3.55,2.89-4.47,1,.93,2.89,1.83,2.89,4.47,0,1.84-1,3.79-2.89,5.77-1.85-2-2.89-3.89-2.89-5.77m1.71,6.63c-2.45,1.15-4.59,1.54-6.38,1-2.5-.81-2.77-2.93-3.35-4.13,1.17-.63,2.62-2.18,5.14-1.36,1.75.56,3.28,2.15,4.59,4.53m.45,1.38c.34,2.69,0,4.88-1.05,6.36-1.55,2.14-3.64,1.74-5,1.92-.24-1.31-1.26-3.18.28-5.31,1.11-1.53,3.07-2.46,5.73-3m7.47,8.28c-1.31-.18-3.41.22-5-1.91-1.11-1.53-1.39-3.68-1.05-6.37,2.67.51,4.65,1.48,5.73,3,1.55,2.14.52,4,.28,5.31"/><path class="cls-1" d="M150.17,35.7a2.79,2.79,0,0,0,.44,0V34.48a1.36,1.36,0,0,1-.3,0c-.48,0-1.35-.09-1.35-1.39V30.05h1.53V29H149v-.88c0-.58-.24-.83-.82-.83h-.43V29h-.88v1h.85v3.21a2.25,2.25,0,0,0,2.49,2.44"/></svg>