<svg id="Layer_1" data-name="Layer 1" xmlns="http://www.w3.org/2000/svg" viewBox="0 0 162.99 48.19"><defs><style>.cls-1{fill:#7bc143;}.cls-2{fill:#fff;}.cls-3{fill:#606060;}</style></defs><title>THL_tunnus_virallinen_SV_RGB</title><path class="cls-1" d="M38.58,24.09A14.17,14.17,0,1,1,24.41,9.92,14.17,14.17,0,0,1,38.58,24.09"/><path class="cls-2" d="M25.59,23.72c1.31-2.39,2.84-4,4.59-4.54,2.52-.81,4,.74,5.14,1.37-.58,1.2-.85,3.32-3.35,4.13-1.79.58-3.93.18-6.38-1m-4.07-6.63c0-2.64,1.93-3.55,2.89-4.47,1,.93,2.89,1.83,2.89,4.47,0,1.84-1,3.79-2.89,5.77-1.85-2-2.89-3.89-2.89-5.77m1.71,6.63c-2.45,1.15-4.59,1.54-6.38,1-2.5-.81-2.77-2.93-3.35-4.13,1.17-.63,2.62-2.18,5.14-1.36,1.75.56,3.28,2.15,4.59,4.53m.45,1.38c.34,2.69,0,4.88-1.05,6.36-1.55,2.14-3.64,1.74-5,1.92-.24-1.31-1.26-3.18.28-5.31,1.11-1.53,3.07-2.46,5.73-3m7.47,8.28c-1.31-.18-3.41.22-5-1.91-1.11-1.53-1.39-3.68-1.05-6.37,2.67.51,4.65,1.48,5.73,3,1.55,2.14.52,4,.28,5.31"/><path class="cls-3" d="M66.63,21.93a2.64,2.64,0,0,0,.44,0V20.72a1.79,1.79,0,0,1-.29,0c-.48,0-1.35-.09-1.35-1.39V16.28H67v-1H65.43v-.89c0-.58-.24-.82-.82-.82h-.44v1.71H63.3v1h.85v3.21A2.24,2.24,0,0,0,66.63,21.93Z"/><path class="cls-3" d="M73.14,19.49a2.24,2.24,0,0,0,2.48,2.44,2.79,2.79,0,0,0,.44,0V20.72a1.79,1.79,0,0,1-.29,0c-.48,0-1.35-.09-1.35-1.39V16.28H76v-1H74.42v-.89c0-.58-.25-.82-.83-.82h-.43v1.71h-.87v1h.85Z"/><path class="cls-3" d="M87.75,19.35V16.28h1.53v-1H87.75v-.89c0-.58-.24-.82-.82-.82h-.44v1.71h-.87v1h.85v3.21A2.25,2.25,0,0,0,89,21.93a2.58,2.58,0,0,0,.43,0V20.72a1.79,1.79,0,0,1-.29,0C88.62,20.74,87.75,20.65,87.75,19.35Z"/><path class="cls-3" d="M99.12,19.49a2.25,2.25,0,0,0,2.49,2.44,2.79,2.79,0,0,0,.44,0V20.72a2,2,0,0,1-.3,0c-.48,0-1.35-.09-1.35-1.39V16.28h1.53v-1H100.4v-.89c0-.58-.24-.82-.82-.82h-.43v1.71h-.88v1h.85Z"/><path class="cls-3" d="M53.67,17.88V21c0,.58.24.82.82.82h1V20.7H55.2a.25.25,0,0,1-.28-.28V17.6c0-1.67-.7-2.5-2.24-2.5a2.65,2.65,0,0,0-2.45,1.49h0a2.39,2.39,0,0,0,0-.37V16c0-.47-.27-.72-.83-.72H49v6.52h1.25V18.72a2.72,2.72,0,0,1,.11-.88,2.12,2.12,0,0,1,2.06-1.6C53.49,16.24,53.67,17,53.67,17.88Z"/><path class="cls-3" d="M69.65,14.19a.73.73,0,1,0-.73-.72A.73.73,0,0,0,69.65,14.19Z"/><path class="cls-3" d="M70.25,20.42V16.08c0-.58-.24-.83-.82-.83H69V21c0,.58.25.82.83.82h1V20.7h-.29A.25.25,0,0,1,70.25,20.42Z"/><path class="cls-3" d="M61.89,20c0-2.18-3.55-1.9-3.55-3.14,0-.52.47-.77,1.21-.77.4,0,1,.16,1,.55V17h1.12v-.62c0-1-1.36-1.26-2.14-1.26-1.33,0-2.42.58-2.42,1.83,0,2.1,3.55,2,3.55,3.14,0,.57-.53.84-1.13.84a2.76,2.76,0,0,1-2-1l-.65.83a3.37,3.37,0,0,0,2.61,1.15C60.86,21.93,61.89,21.18,61.89,20Z"/><path class="cls-3" d="M82.51,20.43h0a3.63,3.63,0,0,0,0,.38v.24c0,.47.27.73.83.73h1.2V20.71H84a.25.25,0,0,1-.28-.29V15.25h-.42c-.59,0-.84.25-.84.8v2.26a2.24,2.24,0,0,1-2.12,2.46c-1,0-1.21-.72-1.21-1.62v-3.1c0-.55-.25-.8-.84-.8H77.9v4.18c0,1.73.75,2.5,2.22,2.5A2.61,2.61,0,0,0,82.51,20.43Z"/><path class="cls-3" d="M94.06,15.1a3.2,3.2,0,0,0-3.27,3.41,3.33,3.33,0,0,0,3.47,3.42A3.83,3.83,0,0,0,96.77,21l-.54-.89a3,3,0,0,1-1.91.76,2.19,2.19,0,0,1-2.24-2.18h4.75s0-.35,0-.52A2.77,2.77,0,0,0,94.06,15.1Zm-1.93,2.65a1.88,1.88,0,0,1,1.92-1.66,1.54,1.54,0,0,1,1.53,1.66Z"/><path class="cls-3" d="M45.94,21.77h1V20.7h-.29a.25.25,0,0,1-.28-.28V13.5c0-.58-.25-.83-.83-.83h-.42V21C45.12,21.53,45.36,21.77,45.94,21.77Z"/><path class="cls-3" d="M110.18,15.25h-1.55v-.19A1.24,1.24,0,0,1,110,13.69a1.57,1.57,0,0,1,.32,0V12.65a2.52,2.52,0,0,0-.47,0A2.23,2.23,0,0,0,107.38,15v.22h-.81v1h.81v5.51h1.25V16.26h1.55Z"/><path class="cls-3" d="M120.59,16.88h0s0-.2,0-.46V16c0-.53-.27-.76-.83-.76h-.38v6.52h1.25V19.1a3.89,3.89,0,0,1,.16-1.17,2,2,0,0,1,1.83-1.53,1.81,1.81,0,0,1,.37,0V15.2a2.2,2.2,0,0,0-.33,0A2.25,2.25,0,0,0,120.59,16.88Z"/><path class="cls-3" d="M114.42,21.93a3.42,3.42,0,1,0-3.5-3.43A3.41,3.41,0,0,0,114.42,21.93Zm0-5.75a2.34,2.34,0,1,1-2.23,2.32A2.24,2.24,0,0,1,114.42,16.18Z"/><path class="cls-3" d="M115.57,14.19a.73.73,0,1,0-.73-.72A.73.73,0,0,0,115.57,14.19Z"/><path class="cls-3" d="M113.29,14.19a.73.73,0,1,0-.72-.72A.72.72,0,0,0,113.29,14.19Z"/><path class="cls-3" d="M93.58,34.61A2.33,2.33,0,0,1,93.52,30c.48,0,1.21.21,1.21.67V31h1.14v-.67c0-1.11-1.56-1.43-2.35-1.43a3.42,3.42,0,1,0,0,6.84,3.59,3.59,0,0,0,2.66-1.13l-.54-.89A2.93,2.93,0,0,1,93.58,34.61Z"/><path class="cls-3" d="M51,34.21V31.39c0-1.67-.69-2.5-2.23-2.5a2.65,2.65,0,0,0-2.42,1.45h0a4.63,4.63,0,0,0,0-.54V27.26c0-.55-.25-.8-.83-.8h-.42v9.1h1.25V32.51a2.69,2.69,0,0,1,.12-.87A2.15,2.15,0,0,1,48.55,30c1,0,1.23.72,1.23,1.64v3.07c0,.58.25.82.83.82h1V34.49h-.28A.26.26,0,0,1,51,34.21Z"/><path class="cls-3" d="M103.5,34.21V31.39c0-1.67-.69-2.5-2.22-2.5a2.66,2.66,0,0,0-2.43,1.45h0s0-.23,0-.54V27.26c0-.55-.24-.8-.82-.8H97.6v9.1h1.25V32.51a2.69,2.69,0,0,1,.12-.87A2.15,2.15,0,0,1,101,30c1,0,1.24.72,1.24,1.64v3.07c0,.58.24.82.82.82h1V34.49h-.28A.26.26,0,0,1,103.5,34.21Z"/><path class="cls-3" d="M65.85,30.66c0-.51.48-.77,1.21-.77.4,0,1,.17,1,.55v.33h1.12v-.62c0-1-1.35-1.27-2.14-1.27-1.32,0-2.42.58-2.42,1.83,0,2.11,3.56,2,3.56,3.15,0,.57-.53.84-1.14.84a2.75,2.75,0,0,1-2-1l-.64.84A3.34,3.34,0,0,0,67,35.72c1.37,0,2.4-.75,2.4-1.91C69.41,31.63,65.85,31.9,65.85,30.66Z"/><path class="cls-3" d="M141.58,30.66h0a3.2,3.2,0,0,0,0-.45V29.8c0-.53-.28-.76-.84-.76h-.38v6.52h1.25V32.89a3.8,3.8,0,0,1,.16-1.17,2,2,0,0,1,1.83-1.53,1.81,1.81,0,0,1,.37,0V29a2.2,2.2,0,0,0-.33,0A2.23,2.23,0,0,0,141.58,30.66Z"/><path class="cls-3" d="M62.15,34.21V27.29c0-.58-.24-.83-.82-.83H60.9v8.28c0,.58.25.82.83.82h1V34.49h-.29A.25.25,0,0,1,62.15,34.21Z"/><path class="cls-3" d="M125.38,34.21V27.29c0-.58-.24-.83-.82-.83h-.43v8.28c0,.58.25.82.83.82h1V34.49h-.28A.26.26,0,0,1,125.38,34.21Z"/><path class="cls-3" d="M57.17,28a.73.73,0,1,0-.73-.73A.73.73,0,0,0,57.17,28Z"/><path class="cls-3" d="M58.48,34.21V31.44c0-1.45-.57-2.56-2.68-2.56-.63,0-2.26.16-2.26,1.23v.64h1.17v-.37c0-.43.76-.5,1.07-.5,1,0,1.45.41,1.45,1.56v.06h-.29c-1.09,0-3.93.13-3.93,2.23a2,2,0,0,0,2.22,2,2.22,2.22,0,0,0,2.07-1.29h0a2.28,2.28,0,0,0,0,.38c0,.47.24.75.82.75h.93V34.49h-.29A.25.25,0,0,1,58.48,34.21Zm-1.24-1.57a2,2,0,0,1-1.74,2.07,1.09,1.09,0,0,1-1.22-1c0-1.2,1.7-1.25,2.64-1.25h.32Z"/><path class="cls-3" d="M54.89,26.52a.73.73,0,1,0,.73.73A.73.73,0,0,0,54.89,26.52Z"/><path class="cls-3" d="M121.16,27.25a.73.73,0,1,0-.73.73A.73.73,0,0,0,121.16,27.25Z"/><path class="cls-3" d="M121.74,34.21V31.44c0-1.45-.57-2.56-2.68-2.56-.63,0-2.26.16-2.26,1.23v.64H118v-.37c0-.43.76-.5,1.07-.5,1,0,1.45.41,1.45,1.56v.06h-.29c-1.09,0-3.93.13-3.93,2.23a2,2,0,0,0,2.22,2,2.22,2.22,0,0,0,2.07-1.29h0a2.28,2.28,0,0,0,0,.38c0,.47.24.75.82.75h.93V34.49H122A.25.25,0,0,1,121.74,34.21Zm-1.24-1.57a2,2,0,0,1-1.74,2.07,1.09,1.09,0,0,1-1.22-1c0-1.2,1.7-1.25,2.64-1.25h.32Z"/><path class="cls-3" d="M117.43,27.25a.73.73,0,1,0,.72-.73A.73.73,0,0,0,117.43,27.25Z"/><path class="cls-3" d="M138.15,34.21V31.44c0-1.45-.57-2.56-2.68-2.56-.63,0-2.26.16-2.26,1.23v.64h1.18v-.37c0-.43.76-.5,1.07-.5,1,0,1.44.41,1.44,1.56v.06h-.28c-1.1,0-3.94.13-3.94,2.23a2,2,0,0,0,2.22,2A2.24,2.24,0,0,0,137,34.43h0a3.39,3.39,0,0,0,0,.38c0,.47.23.75.81.75h.93V34.49h-.29A.25.25,0,0,1,138.15,34.21Zm-1.24-1.57a2,2,0,0,1-1.74,2.07,1.09,1.09,0,0,1-1.22-1c0-1.2,1.7-1.25,2.64-1.25h.32Z"/><path class="cls-3" d="M134.56,28a.73.73,0,1,0-.72-.73A.73.73,0,0,0,134.56,28Z"/><path class="cls-3" d="M136.84,28a.73.73,0,1,0-.73-.73A.73.73,0,0,0,136.84,28Z"/><path class="cls-3" d="M76.56,34.21V31.44c0-1.45-.57-2.56-2.69-2.56-.63,0-2.25.16-2.25,1.23v.64h1.17v-.37c0-.43.76-.5,1.07-.5,1,0,1.45.41,1.45,1.56v.06H75c-1.09,0-3.93.13-3.93,2.23a2,2,0,0,0,2.22,2,2.22,2.22,0,0,0,2.07-1.29h0a2.28,2.28,0,0,0,0,.38c0,.47.23.75.81.75h.94V34.49h-.29A.25.25,0,0,1,76.56,34.21Zm-1.24-1.57a2,2,0,0,1-1.74,2.07,1.09,1.09,0,0,1-1.23-1c0-1.2,1.71-1.25,2.65-1.25h.32Z"/><path class="cls-3" d="M151.5,34.49a.25.25,0,0,1-.28-.28V27.29c0-.58-.25-.83-.83-.83H150v1.67c0,.25,0,1.75,0,1.75h0a2.2,2.2,0,0,0-2-1c-1.72,0-2.95,1.35-2.95,3.42s1.11,3.42,2.88,3.42A2.3,2.3,0,0,0,150,34.53h0s0,.14,0,.33c0,.44.23.7.8.7h.95V34.49Zm-3.38.14c-1.08,0-1.84-.91-1.84-2.33s.85-2.33,1.87-2.33c1.25,0,1.85,1.16,1.85,2.32C150,34,149.09,34.63,148.12,34.63Z"/><path class="cls-3" d="M128.36,28.82V29h-.82v1h.82v5.51h1.25V30.05h1.54V29h-1.54v-.19A1.23,1.23,0,0,1,131,27.48a1.62,1.62,0,0,1,.33,0V26.44a2.7,2.7,0,0,0-.48,0A2.23,2.23,0,0,0,128.36,28.82Z"/><path class="cls-3" d="M85.31,28.88a3.42,3.42,0,1,0,3.52,3.41A3.39,3.39,0,0,0,85.31,28.88Zm0,5.75a2.33,2.33,0,1,1,2.24-2.34A2.25,2.25,0,0,1,85.31,34.63Z"/><path class="cls-3" d="M113.61,29.7l-1.39,3.75a7.36,7.36,0,0,0-.23.85h0a7.36,7.36,0,0,0-.23-.85l-1.4-3.75a.86.86,0,0,0-1-.66h-.64l2.54,6.52h1.44L115.21,29h-.61A.86.86,0,0,0,113.61,29.7Z"/></svg>